<svg width="35" height="41" viewBox="0 0 35 41" fill="none" xmlns="http://www.w3.org/2000/svg">
<path fill-rule="evenodd" clip-rule="evenodd" d="M34.4951 5.68769C32.8438 4.11169 30.9238 2.80474 28.8116 1.84369C27.198 1.113 25.4317 0.575004 23.5902 0.267786L23.5892 0.267623C12.5265 -1.53954 2.08009 5.99651 0.274771 17.1062C-0.2629 20.3359 0.00606388 23.4896 0.927998 26.412L1.0683 26.8567L10.1955 18.6381L10.178 18.4845C10.03 17.1884 10.0666 16.0034 10.2896 14.6266C11.5498 6.76133 18.962 1.41779 26.8203 2.67763C27.2374 2.75354 27.64 2.82711 28.0407 2.93651L28.0447 2.93753C30.3465 3.53215 32.3846 4.60863 34.0882 6.12856L34.4951 5.68769Z" fill="#2D2E3A"/>
<path fill-rule="evenodd" clip-rule="evenodd" d="M26.9876 8.10552C24.8737 8.10552 23.2526 9.10896 21.716 10.4933L4.8381 25.797C3.61542 26.9024 2.92288 28.191 2.92288 29.8074C2.92288 30.8202 3.44724 31.7755 4.19128 32.47C4.93552 33.1646 5.93293 33.6302 6.93139 33.6302H17.4009L16.8212 35.79C16.4318 37.2325 16.5019 38.4345 17.0144 39.2895C17.5358 40.1594 18.4717 40.6001 19.6463 40.6001C21.5298 40.6001 22.9797 39.2095 23.5693 36.9672L24.4558 33.6304C25.379 33.5952 26.2722 33.1435 26.8815 32.3812L26.8854 32.376C27.9675 30.9595 27.7207 28.9146 26.2996 27.8268L26.2974 27.8251C26.2102 27.7597 26.1321 27.704 26.0509 27.6528L30.2288 12.045C30.5536 10.8655 30.3269 9.86521 29.6941 9.1614C29.0694 8.46664 28.0893 8.10552 26.9876 8.10552ZM21.3896 18.7427L19.0381 27.4619H12.1159L21.3896 18.7427Z" fill="#2D2E3A"/>
</svg>